<?xml version="1.0" encoding="UTF-8"?>
<svg version="1.1" xmlns="http://www.w3.org/2000/svg" width="342" height="542">
    <path
        d="M0 0 C112.86 0 225.72 0 342 0 C342 169.29 342 338.58 342 513 C337.49527571 511.49842524 334.250671 510.17588663 330.23828125 507.8671875 C329.13339355 507.23417725 328.02850586 506.60116699 326.89013672 505.94897461 C325.69746149 505.25787344 324.50491949 504.56654232 323.3125 503.875 C322.06282115 503.1554052 320.81298106 502.43609036 319.56298828 501.71704102 C309.99809066 496.20352742 300.49800096 490.58205878 291.01123047 484.93530273 C279.07646171 477.83672644 267.04183606 470.91486141 255 464 C241.78577152 456.41190811 228.59750575 448.78826744 215.5 441 C206.26087626 435.50664905 196.99454548 430.06469788 187.6875 424.6875 C186.60210937 424.05908203 185.51671875 423.43066406 184.3984375 422.78320312 C183.38394531 422.19861328 182.36945313 421.61402344 181.32421875 421.01171875 C179.9952356 420.24541138 179.9952356 420.24541138 178.6394043 419.46362305 C177.76840088 418.98062744 176.89739746 418.49763184 176 418 C175.00315186 417.39591309 174.00630371 416.79182617 172.97924805 416.16943359 C170.10827706 414.69343148 170.10827706 414.69343148 167.49658203 415.72241211 C166.67528809 416.23553955 165.85399414 416.74866699 165.0078125 417.27734375 C164.06808594 417.84646484 163.12835938 418.41558594 162.16015625 419.00195312 C161.15855469 419.64068359 160.15695313 420.27941406 159.125 420.9375 C156.96132364 422.25974666 154.79725011 423.58134357 152.6328125 424.90234375 C151.52969727 425.5866748 150.42658203 426.27100586 149.29003906 426.97607422 C144.24757835 430.07803321 139.12411866 433.03565129 134 436 C131.99953892 437.16587589 129.99954017 438.33254541 128 439.5 C100 455.83333333 72 472.16666667 44 488.5 C42.51234131 489.36782104 42.51234131 489.36782104 40.99462891 490.25317383 C39.01257986 491.40934217 37.03048419 492.5654306 35.04833984 493.72143555 C29.7732874 496.79804229 24.49926274 499.87639476 19.2265625 502.95703125 C18.12183594 503.60220703 17.01710938 504.24738281 15.87890625 504.91210938 C13.74840242 506.15639522 11.61818301 507.40116822 9.48828125 508.64648438 C8.53566406 509.20271484 7.58304687 509.75894531 6.6015625 510.33203125 C5.33820068 511.07030151 5.33820068 511.07030151 4.04931641 511.82348633 C2.72035524 512.58644366 1.37061787 513.31469107 0 514 C0 344.38 0 174.76 0 0 Z "
        fill="#000000" fill-opacity="0.7" transform="translate(0,0)" />
    <path
        d="M0 0 C112.86 0 225.72 0 342 0 C342 169.29 342 338.58 342 513 C337.49527571 511.49842524 334.250671 510.17588663 330.23828125 507.8671875 C329.13339355 507.23417725 328.02850586 506.60116699 326.89013672 505.94897461 C325.69746149 505.25787344 324.50491949 504.56654232 323.3125 503.875 C322.06282115 503.1554052 320.81298106 502.43609036 319.56298828 501.71704102 C309.99809066 496.20352742 300.49800096 490.58205878 291.01123047 484.93530273 C279.07646171 477.83672644 267.04183606 470.91486141 255 464 C241.78577152 456.41190811 228.59750575 448.78826744 215.5 441 C206.26087626 435.50664905 196.99454548 430.06469788 187.6875 424.6875 C186.60210937 424.05908203 185.51671875 423.43066406 184.3984375 422.78320312 C183.38394531 422.19861328 182.36945313 421.61402344 181.32421875 421.01171875 C179.9952356 420.24541138 179.9952356 420.24541138 178.6394043 419.46362305 C177.76840088 418.98062744 176.89739746 418.49763184 176 418 C175.00315186 417.39591309 174.00630371 416.79182617 172.97924805 416.16943359 C170.10827706 414.69343148 170.10827706 414.69343148 167.49658203 415.72241211 C166.67528809 416.23553955 165.85399414 416.74866699 165.0078125 417.27734375 C164.06808594 417.84646484 163.12835938 418.41558594 162.16015625 419.00195312 C161.15855469 419.64068359 160.15695313 420.27941406 159.125 420.9375 C156.96132364 422.25974666 154.79725011 423.58134357 152.6328125 424.90234375 C151.52969727 425.5866748 150.42658203 426.27100586 149.29003906 426.97607422 C144.24757835 430.07803321 139.12411866 433.03565129 134 436 C131.99953892 437.16587589 129.99954017 438.33254541 128 439.5 C100 455.83333333 72 472.16666667 44 488.5 C42.51234131 489.36782104 42.51234131 489.36782104 40.99462891 490.25317383 C39.01257986 491.40934217 37.03048419 492.5654306 35.04833984 493.72143555 C29.7732874 496.79804229 24.49926274 499.87639476 19.2265625 502.95703125 C18.12183594 503.60220703 17.01710938 504.24738281 15.87890625 504.91210938 C13.74840242 506.15639522 11.61818301 507.40116822 9.48828125 508.64648438 C8.53566406 509.20271484 7.58304687 509.75894531 6.6015625 510.33203125 C5.33820068 511.07030151 5.33820068 511.07030151 4.04931641 511.82348633 C2.72035524 512.58644366 1.37061787 513.31469107 0 514 C0 344.38 0 174.76 0 0 Z M8 8 C8 170.69 8 333.38 8 501 C26.67524724 490.32843015 45.33201973 479.65817973 63.75219727 468.55200195 C73.70448978 462.55753781 83.73965903 456.71054261 93.78369141 450.87158203 C99.67357014 447.44423951 105.55704477 444.00598274 111.4375 440.5625 C112.04658203 440.20584259 112.65566406 439.84918518 113.28320312 439.48171997 C121.96947337 434.39232439 130.62116225 429.24880965 139.25 424.0625 C140.27327393 423.45027588 141.29654785 422.83805176 142.35083008 422.20727539 C146.95650574 419.44896618 151.54340935 416.66986641 156.0859375 413.80859375 C156.8603418 413.32962646 157.63474609 412.85065918 158.43261719 412.35717773 C159.83631126 411.4882317 161.23123209 410.60484799 162.61425781 409.70336914 C165.64622051 407.84595413 167.78744557 407.00593175 171.359375 406.90625 C176.29058771 408.38773021 180.2688834 410.79314723 184.625 413.5 C186.59445667 414.69369125 188.56454113 415.88634716 190.53515625 417.078125 C191.58203613 417.71556641 192.62891602 418.35300781 193.70751953 419.00976562 C198.85357191 422.12044477 204.04556631 425.15174139 209.23797607 428.18408203 C212.3283618 429.98953804 215.4158918 431.79986735 218.50390625 433.609375 C219.75665847 434.34312406 221.0094254 435.07684802 222.26220703 435.81054688 C227.74057987 439.01929537 233.21752247 442.2304835 238.69454956 445.44152832 C241.7129722 447.21112266 244.73149105 448.98055288 247.75 450.75 C248.95833379 451.45833255 250.16666713 452.16666588 251.375 452.875 C251.973125 453.225625 252.57125 453.57625 253.1875 453.9375 C258.625 457.125 258.625 457.125 260.43736267 458.18742371 C261.64614887 458.89601971 262.85493997 459.60460735 264.06373596 460.31318665 C267.07768059 462.0799328 270.09154096 463.84682237 273.10522461 465.61401367 C278.62470109 468.85038028 284.14487559 472.08553187 289.6680603 475.31556702 C292.79994142 477.1471926 295.93128508 478.97973582 299.0625 480.8125 C299.9674823 481.34204788 299.9674823 481.34204788 300.89074707 481.8822937 C309.72665137 487.05459229 318.52849827 492.28080287 327.27758789 497.59887695 C328.02645264 498.05222412 328.77531738 498.50557129 329.546875 498.97265625 C330.19495117 499.36718994 330.84302734 499.76172363 331.51074219 500.16821289 C332.86120886 501.08127041 332.86120886 501.08127041 334 501 C334 338.31 334 175.62 334 8 C226.42 8 118.84 8 8 8 Z "
        fill="#9C9C9C" transform="translate(0,0)" />
    <path
        d="M0 0 C0.89235352 0.52247314 1.78470703 1.04494629 2.70410156 1.58325195 C4.23357422 2.47270508 4.23357422 2.47270508 5.79394531 3.38012695 C7.42783203 4.34112305 7.42783203 4.34112305 9.09472656 5.3215332 C10.25193628 5.9965996 11.40949513 6.67106782 12.56738281 7.3449707 C14.97043239 8.74419125 17.37196576 10.14596256 19.77246094 11.54956055 C25.28259468 14.76852685 30.81480273 17.94923165 36.34472656 21.1340332 C38.51149635 22.38385445 40.67816271 23.63385501 42.84472656 24.8840332 C43.91722656 25.5027832 44.98972656 26.1215332 46.09472656 26.7590332 C76.96972656 44.5715332 76.96972656 44.5715332 107.84472656 62.3840332 C108.91859619 63.0035083 109.99246582 63.6229834 111.09887695 64.26123047 C113.25193694 65.50351126 115.40477135 66.74618309 117.55737305 67.98925781 C122.58574117 70.89239433 127.6161247 73.79182187 132.65493774 76.67678833 C134.42905201 77.69280504 136.20242575 78.71010248 137.97558594 79.7277832 C140.1928797 80.99985612 142.41153732 82.26955606 144.63183594 83.53637695 C146.62357267 84.68032275 148.60862956 85.8360051 150.58569336 87.00512695 C152.39559259 88.07367378 154.22252194 89.1139902 156.06665039 90.12231445 C158.40728636 91.48881424 160.40656162 92.7395797 162.34472656 94.6340332 C163.07921934 97.86580141 163.26039488 99.39390756 162.90722656 102.5090332 C162.86662109 103.19739258 162.82601563 103.88575195 162.78417969 104.5949707 C162.67900598 106.27775003 162.51756577 107.95685272 162.34472656 109.6340332 C156.16306369 108.00564214 151.03382022 104.69156225 145.59472656 101.4465332 C143.43105108 100.16983542 141.26697491 98.8938165 139.10253906 97.6184082 C137.9865332 96.95905273 136.87052734 96.29969727 135.72070312 95.62036133 C130.32346327 92.44477965 124.89708656 89.32026761 119.46972656 86.1965332 C117.28481281 84.93744972 115.09991707 83.67833497 112.91503906 82.41918945 C111.28743652 81.48163818 111.28743652 81.48163818 109.62695312 80.52514648 C104.19812714 77.39723172 98.77153375 74.26544872 93.34472656 71.1340332 C91.17807074 69.88401441 89.01140407 68.63401442 86.84472656 67.3840332 C73.84472656 59.8840332 60.84472656 52.3840332 47.84472656 44.8840332 C46.23380127 43.95469971 46.23380127 43.95469971 44.59033203 43.0065918 C42.43820526 41.76491793 40.28618583 40.52305798 38.13427734 39.28100586 C33.0944168 36.37236497 28.05355165 33.46551422 23.00872803 30.56549072 C21.22723078 29.54127655 19.44608334 28.51645669 17.66503906 27.49145508 C15.43396031 26.20769945 13.20223083 24.92507381 10.96972656 23.64379883 C9.95652344 23.06049805 8.94332031 22.47719727 7.89941406 21.8762207 C6.94389648 21.32804687 5.98837891 20.77987305 5.00390625 20.21508789 C1.96135055 18.40609132 -0.95737922 16.44968893 -3.83447266 14.38842773 C-6.44948093 13.304977 -7.97663714 13.82227124 -10.65527344 14.6340332 C-12.99920805 15.7029642 -12.99920805 15.7029642 -15.33105469 17.08325195 C-16.22848389 17.59412354 -17.12591309 18.10499512 -18.05053711 18.63134766 C-19.0132251 19.18910889 -19.97591309 19.74687012 -20.96777344 20.3215332 C-21.98395752 20.90314209 -23.0001416 21.48475098 -24.04711914 22.08398438 C-32.16376581 26.74050438 -40.24411324 31.46028863 -48.31860352 36.18945312 C-56.0675036 40.72413314 -63.85434664 45.18978563 -71.65527344 49.6340332 C-80.34937504 54.58766819 -89.02030232 59.57772658 -97.65527344 64.6340332 C-106.87860609 70.03486168 -116.14577287 75.3552713 -125.43218994 80.64648438 C-133.82515221 85.42989707 -142.19080254 90.25777577 -150.53027344 95.1340332 C-151.51463379 95.70911621 -152.49899414 96.28419922 -153.51318359 96.87670898 C-158.76254393 99.94334197 -158.76254393 99.94334197 -164.01074219 103.01196289 C-166.01469449 104.18213432 -168.02177177 105.34669351 -170.03027344 106.5090332 C-171.08988281 107.12520508 -172.14949219 107.74137695 -173.24121094 108.3762207 C-175.65527344 109.6340332 -175.65527344 109.6340332 -177.65527344 109.6340332 C-177.90066729 107.25280397 -178.07691766 104.89687399 -178.21777344 102.5090332 C-178.29318359 101.84387695 -178.36859375 101.1787207 -178.44628906 100.4934082 C-178.53417969 98.5012207 -178.53417969 98.5012207 -177.65527344 94.6340332 C-174.98735302 92.04908359 -171.90550799 90.39682128 -168.65527344 88.6340332 C-167.82697021 88.15305176 -166.99866699 87.67207031 -166.14526367 87.17651367 C-163.47724318 85.63191046 -160.78808172 84.13046574 -158.09277344 82.6340332 C-149.965815 78.08146494 -141.88099433 73.46655468 -133.84277344 68.7590332 C-122.23589296 61.96510765 -110.59134339 55.23813409 -98.9375 48.52514648 C-93.50867401 45.39723172 -88.08208063 42.26544872 -82.65527344 39.1340332 C-80.48861761 37.88401441 -78.32195094 36.63401442 -76.15527344 35.3840332 C-75.08277344 34.7652832 -74.01027344 34.1465332 -72.90527344 33.5090332 C-69.65527344 31.6340332 -66.40527344 29.7590332 -63.15527344 27.8840332 C-61.54446899 26.95469971 -61.54446899 26.95469971 -59.90112305 26.0065918 C-57.74834528 24.76463576 -55.5955138 23.5227728 -53.44262695 22.28100586 C-48.40910429 19.37756407 -43.37609296 16.4732482 -38.34506226 13.56549072 C-36.57164736 12.54057918 -34.79805697 11.51597197 -33.02441406 10.49145508 C-30.8053157 9.20950583 -28.58654328 7.92699214 -26.36816406 6.64379883 C-24.38021241 5.4956838 -22.388693 4.35371631 -20.39306641 3.21899414 C-18.615811 2.19010685 -16.85769624 1.12714158 -15.12451172 0.02563477 C-13.96604736 -0.69027832 -13.96604736 -0.69027832 -12.78417969 -1.4206543 C-12.12619385 -1.84588379 -11.46820801 -2.27111328 -10.7902832 -2.70922852 C-6.80534611 -3.93501248 -3.53348834 -1.81775168 0 0 Z "
        fill="#000000" transform="translate(178.6552734375,430.365966796875)" />
</svg>