<svg width="33" height="45" viewBox="0 0 33 45" fill="none" xmlns="http://www.w3.org/2000/svg">
    <path
        d="M0 0C10.89 0 21.78 0 33 0C33 14.2715 33 28.5531 33 43.257L16.4459 34.8592C16.5467 34.9099 16.3481 34.8099 16.4459 34.8592C16.5325 34.9011 16.3619 34.8184 16.4459 34.8592C16.545 34.9116 16.3497 34.8082 16.4459 34.8592C16.4459 34.8592 0.270492 43.0986 0 43.257C0 28.9578 0 14.7326 0 0Z"
        fill="black" fill-opacity="0.7" />
    <path
        d="M17.1781 35.8508C17.264 35.8945 17.3498 35.9383 17.4383 35.9833C17.5854 36.0579 17.5854 36.0579 17.7355 36.1338C17.8927 36.2143 17.8927 36.2143 18.053 36.2964C18.1644 36.3529 18.2758 36.4094 18.3872 36.4659C18.6183 36.583 18.8494 36.7004 19.0803 36.8179C19.6103 37.0875 20.1426 37.3539 20.6746 37.6206C20.883 37.7253 21.0915 37.8299 21.2999 37.9346C21.4031 37.9865 21.5063 38.0383 21.6126 38.0917C24.5829 39.5833 24.5829 39.5833 27.5531 41.075C27.6565 41.1268 27.7598 41.1787 27.8662 41.2322C28.0733 41.3363 28.2805 41.4403 28.4875 41.5444C28.9713 41.7875 29.4552 42.0303 29.9399 42.2719C30.1107 42.357 30.2812 42.4422 30.4518 42.5274C30.6651 42.634 30.8786 42.7403 31.0921 42.8463C31.2837 42.9421 31.4747 43.0389 31.665 43.1368C31.8391 43.2263 32.0112 43.3146 32.1886 43.399H30.4995C30.5036 43.3396 30.4957 43.4566 30.4995 43.399H29.3289C29.2216 43.3438 28.423 42.9397 29.3289 43.399C28.8097 43.1331 29.1936 43.3307 28.6715 43.0691C28.4613 42.9637 28.2511 42.8583 28.0409 42.7528C27.8844 42.6743 27.8844 42.6743 27.7246 42.5942C27.2023 42.3323 26.6803 42.07 26.1581 41.8078C25.9498 41.7031 25.7413 41.5984 25.5329 41.4937C24.2822 40.8656 23.0315 40.2376 21.7809 39.6095C21.6259 39.5317 21.6259 39.5317 21.4678 39.4523C21.2608 39.3483 21.0538 39.2443 20.8467 39.1403C20.3619 38.8967 19.8769 38.6533 19.3916 38.4104C19.2202 38.3246 19.0489 38.2389 18.8776 38.153C18.6629 38.0455 18.4482 37.9381 18.2334 37.8308C18.1359 37.7819 18.0385 37.7331 17.9381 37.6827C17.8462 37.6368 17.7532 37.5925 17.6595 37.5436C17.3721 37.4107 17.3721 37.3691 16.4101 36.9333C16.0733 37.1008 16.0733 37.1008 16.0733 37.1008C15.929 37.1677 15.9276 37.1658 15.7032 37.2814C15.6169 37.3242 15.5305 37.3669 15.4416 37.411C15.349 37.4578 15.2564 37.5044 15.161 37.5525C15.0632 37.6012 14.9654 37.6499 14.8647 37.7001C14.0838 38.0901 13.3065 38.4854 12.5297 38.8814C11.7843 39.2611 11.0351 39.6351 10.2847 40.0073C9.44825 40.4221 8.61408 40.84 7.78337 41.2634C6.89606 41.7157 6.00453 42.1613 5.11115 42.6044C3.89375 43.1428 3.89375 43.1428 3.89375 43.1428H1.08203C2.19865 42.5738 6.53888 40.4766 7.66002 39.9144C8.18229 39.6524 8.70435 39.3902 9.22642 39.128C9.43486 39.0233 9.64329 38.9186 9.85178 38.8139C9.95496 38.7621 10.0581 38.7103 10.1644 38.657C10.477 38.4999 10.7897 38.3429 11.1024 38.1859C11.2574 38.1081 11.2574 38.1081 11.4155 38.0287C11.6225 37.9246 11.8296 37.8207 12.0368 37.7166C12.521 37.4735 13.0052 37.2303 13.4892 36.9867C13.6598 36.901 13.8305 36.8152 14.0011 36.7294C14.2146 36.622 14.428 36.5146 14.6414 36.4072C14.8327 36.311 15.0079 36.216 15.1999 36.121C15.3709 36.0348 15.3658 36.0452 15.7231 35.8529C15.8346 35.7929 15.8346 35.7929 15.9483 35.7318C16.043 35.6808 16.3448 35.5296 16.4101 35.4929C16.6506 35.5934 16.6506 35.5934 17.1781 35.8508Z"
        fill="black" fill-opacity="0.7" />
    <path
        d="M0 21.6223V0H16.5H33V21.5895V22.2526V23.5173V24.1408V25.3273V25.9113V27.0228V27.569L32.999 28.6074V29.1173V30.085V30.5596L32.9981 31.4582V31.9236V32.3626V32.5621L33 33.1207V33.839V34.0785V34.278V34.9962V35.1957V35.3554V35.6746V35.8342V35.9939V36.1534V36.3131V36.6087V36.9116V37.191V37.7496V37.9891V38.4876V38.7472V39.1862V39.3857V39.7847V39.9843V40.3434V40.5031V40.8223V40.9819V41.2213V41.381V41.5963V41.7401V41.9396V42.0195V42.219V42.3387V42.4583V42.5429V42.6978V42.7667V42.8568V42.9372V43.0857V43.126V43.1767V43.2565L32.9035 43.2054L32.807 43.1575L32.7467 43.1264L32.7105 43.1088L32.6551 43.0809L32.5616 43.0352L32.3238 42.9084L30.2982 41.8773L31.7456 42.6168L32.0982 42.7969L31.9868 42.74L31.7456 42.6168L31.6125 42.5487L31.3322 42.4055L31.1846 42.3301L30.8546 42.1616L30.6842 42.0745L30.3233 41.8899L30.1371 41.7965L29.7396 41.5963L29.5369 41.4944L29.1095 41.2782L28.8924 41.1688L28.4369 40.9382L28.2063 40.8221L27.7268 40.5789L27.2414 40.3332L26.2089 39.8098L24.5898 38.9869L24.0369 38.7058L22.9726 38.1656L22.4487 37.9005L21.4596 37.3998L21.2184 37.277L20.7533 37.0422L20.5237 36.9261L20.0856 36.7048L19.8695 36.5962L19.4604 36.3901L19.2597 36.2891L18.8824 36.0998L18.6981 36.0072L18.3555 35.8347L18.1886 35.7514L17.8837 35.5991L17.7361 35.5259L17.4717 35.3937L17.3453 35.3306L17.1233 35.2213L17.0191 35.1691L16.8435 35.0833L16.7615 35.0437L16.6351 34.9823L16.5782 34.9545L16.5029 34.92L16.4518 34.899H16.4489L16.4035 34.92L16.3736 34.9335L16.2752 34.9814L16.2202 35.0084L16.0735 35.0799L15.9954 35.1194L15.8033 35.2146L15.702 35.2651L15.4685 35.3811L15.3469 35.4417L15.0748 35.5781L14.9349 35.6487L14.6271 35.8027L14.4698 35.8819L14.1311 36.0526L13.9575 36.1393L13.5898 36.3245L13.4026 36.4187L13.0099 36.6173L12.6114 36.8176L11.7526 37.2518L11.3155 37.4722L10.3989 37.9358L9.93667 38.1698L8.98912 38.6494L8.51439 38.89L7.56202 39.3731L7.08825 39.6129L6.15807 40.085L5.69877 40.3189L4.81781 40.7665L4.38649 40.9862L3.58079 41.3968L3.38491 41.4961L3.01246 41.6863L2.83009 41.7797L2.48561 41.9555L2.31772 42.0414L2.00412 42.2013L1.85263 42.2795L1.57377 42.4225L1.43965 42.4915L1.19939 42.6153L1.0836 42.6742L0.884825 42.7776L0.791228 42.8265L0.635877 42.9064L0.458333 43.0007L0 43.2447V21.6223ZM8.99202 37.9224L9.49474 37.6641L10.4625 37.1676L10.9392 36.9236L11.8404 36.4625L12.0604 36.3505L12.485 36.1343L12.6944 36.0282L13.0958 35.8247L13.2926 35.7245L13.667 35.5351L13.8513 35.4417L14.1968 35.2676L14.3656 35.1826L14.6802 35.0244L14.8336 34.9478L15.1144 34.8082L15.2495 34.74L15.4936 34.6188L15.6113 34.5608L15.8159 34.4598L15.9133 34.4126L16.0774 34.3335L16.1536 34.2965L16.2732 34.2401L16.3273 34.2149L16.3997 34.1829L16.4537 34.1636H16.4575L16.4884 34.1753L16.5087 34.1837L16.5695 34.2115L16.6042 34.2275L16.6949 34.2696L16.7441 34.2932L16.8628 34.3504L16.9255 34.3807L17.0712 34.4522L17.1475 34.4892L17.3182 34.5734L17.407 34.6171L17.6029 34.7139L17.7042 34.7644L17.9232 34.8729L18.1481 34.9848L18.6633 35.2423L18.9306 35.377L19.524 35.6749L19.8299 35.8288L20.4928 36.1629L20.8315 36.3345L21.5542 36.6997L21.9218 36.8857L22.6947 37.2779L23.0865 37.4765L23.9009 37.8904L24.3119 38.0991L25.1572 38.53L25.5837 38.747L26.4521 39.1905L27.3244 39.6356L29.096 40.5436L31.7215 41.8924L32.2281 42.1533V21.4128V0.673173H16.5H0.77193V21.4128V42.1533L1.23026 41.9168L1.2457 41.9093L1.31518 41.8739L1.3557 41.8529L1.47149 41.7931L1.53518 41.7603L1.69632 41.6771L1.78123 41.6333L1.98482 41.5289L2.09097 41.4742L2.33316 41.3497L2.4586 41.2849L2.73746 41.141L2.88123 41.067L3.19482 40.9062L3.355 40.8238L3.69947 40.6462L3.87509 40.5562L4.24851 40.3635L4.4386 40.2659L4.83711 40.0605L5.03974 39.9562L5.46237 39.7392L5.67658 39.6289L6.12044 39.4L6.56816 39.1694L7.5157 38.6822L7.99623 38.4348L8.99202 37.9224Z"
        fill="white" fill-opacity="0.3" />
</svg>
    
    
    