<svg width="33" height="45" viewBox="0 0 33 45" fill="none" xmlns="http://www.w3.org/2000/svg">
    <path
        d="M0 0C10.89 0 21.78 0 33 0C33 14.1646 33 28.4965 33 43.0904C32.5658 42.923 32.2523 42.6867 31.8651 42.4936C31.7584 42.4406 31.6519 42.3877 31.542 42.3331C31.4269 42.2753 31.3119 42.2174 31.1968 42.1596C31.0763 42.0993 30.9556 42.0391 30.835 41.979C29.9121 41.5177 28.9954 41.0473 28.08 40.5749C26.9284 39.9809 25.7672 39.4017 24.6053 38.8232C23.3302 38.1883 22.0577 37.5504 20.7939 36.8988C19.9024 36.4391 19.0083 35.9838 18.1102 35.5339C18.0055 35.4813 17.9008 35.4287 17.7928 35.3746C17.6949 35.3257 17.597 35.2768 17.4962 35.2264C17.3679 35.1622 17.3679 35.1622 17.2371 35.0968C17.1531 35.0564 17.069 35.016 16.9825 34.9744C16.8863 34.9238 16.7901 34.8733 16.691 34.8212C16.4139 34.6977 16.4139 34.6977 16.162 34.7838C16.0827 34.8267 16.0035 34.8697 15.9218 34.9139C15.8311 34.9615 15.7404 35.0091 15.647 35.0582C15.5504 35.1116 15.4537 35.1651 15.3542 35.2201C15.1454 35.3307 14.9366 35.4413 14.7277 35.5519C14.6213 35.6091 14.5149 35.6664 14.4052 35.7254C13.9187 35.9849 13.4242 36.2324 12.9298 36.4804C12.7368 36.5779 12.5439 36.6756 12.3509 36.7733C9.64912 38.1399 6.94737 39.5065 4.24561 40.8731C4.10206 40.9458 4.10206 40.9458 3.95562 41.0198C3.76437 41.1166 3.57312 41.2133 3.38185 41.31C2.87286 41.5675 2.36397 41.825 1.8552 42.0827C1.74859 42.1368 1.642 42.1907 1.53217 42.2464C1.3266 42.3505 1.12105 42.4546 0.915536 42.5588C0.823616 42.6054 0.731698 42.6519 0.636993 42.6999C0.515089 42.7616 0.515089 42.7616 0.390724 42.8246C0.262491 42.8885 0.132253 42.9494 0 43.0067C0 28.8145 0 14.6223 0 0Z"
        fill="#EFC01B" />
    <path
        d="M0 21.6223V0H16.5H33V21.5895V22.2526V23.5173V24.1408V25.3273V25.9113V27.0228V27.569L32.999 28.6074V29.1173V30.085V30.5596L32.9981 31.4582V31.9236V32.3626V32.5621L33 33.1207V33.839V34.0785V34.278V34.9962V35.1957V35.3554V35.6746V35.8342V35.9939V36.1534V36.3131V36.6087V36.9116V37.191V37.7496V37.9891V38.4876V38.7472V39.1862V39.3857V39.7847V39.9843V40.3434V40.5031V40.8223V40.9819V41.2213V41.381V41.5963V41.7401V41.9396V42.0195V42.219V42.3387V42.4583V42.5429V42.6978V42.7667V42.8568V42.9372V43.0857V43.126V43.1767V43.2565L32.9035 43.2054L32.807 43.1575L32.7467 43.1264L32.7105 43.1088L32.6551 43.0809L32.5616 43.033L32.3728 42.9372L30.2982 41.8773L31.7456 42.6168L32.0982 42.7969L31.9868 42.74L31.7456 42.6168L31.6125 42.5487L31.3322 42.4055L31.1846 42.3301L30.8546 42.1616L30.6842 42.0745L30.3233 41.8899L30.1371 41.7965L29.7396 41.5963L29.5369 41.4944L29.1095 41.2782L28.8924 41.1688L28.4369 40.9382L28.2063 40.8221L27.7268 40.5789L27.2414 40.3332L26.2089 39.8098L24.5898 38.9869L24.0369 38.7058L22.9726 38.1656L22.4487 37.9005L21.4596 37.3998L21.2184 37.277L20.7533 37.0422L20.5237 36.9261L20.0856 36.7048L19.8695 36.5962L19.4604 36.3901L19.2597 36.2891L18.8824 36.0998L18.6981 36.0072L18.3555 35.8347L18.1886 35.7514L17.8837 35.5991L17.7361 35.5259L17.4717 35.3937L17.3453 35.3306L17.1233 35.2213L17.0191 35.1691L16.8435 35.0833L16.7615 35.0437L16.6351 34.9823L16.5782 34.9545L16.5029 34.92L16.4518 34.899H16.4489L16.4035 34.92L16.3736 34.9335L16.2752 34.9814L16.2202 35.0084L16.0735 35.0799L15.9954 35.1194L15.8033 35.2146L15.702 35.2651L15.4685 35.3811L15.3469 35.4417L15.0748 35.5781L14.9349 35.6487L14.6271 35.8027L14.4698 35.8819L14.1311 36.0526L13.9575 36.1393L13.5898 36.3245L13.4026 36.4187L13.0099 36.6173L12.6114 36.8176L11.7526 37.2518L11.3155 37.4722L10.3989 37.9358L9.93667 38.1698L8.98912 38.6494L8.51439 38.89L7.56202 39.3731L7.08825 39.6129L6.15807 40.085L5.69877 40.3189L4.81781 40.7665L4.38649 40.9862L3.58079 41.3968L3.38491 41.4961L3.01246 41.6863L2.83009 41.7797L2.48561 41.9555L2.31772 42.0414L2.00412 42.2013L1.85263 42.2795L1.57377 42.4225L1.43965 42.4915L1.19939 42.6153L1.0836 42.6742L0.884825 42.7776L0.791228 42.8265L0.635877 42.9064L0.458333 43.0007L0 43.2447V21.6223ZM8.99202 37.9224L9.49474 37.6641L10.4625 37.1676L10.9392 36.9236L11.8404 36.4625L12.0604 36.3505L12.485 36.1343L12.6944 36.0282L13.0958 35.8247L13.2926 35.7245L13.667 35.5351L13.8513 35.4417L14.1968 35.2676L14.3656 35.1826L14.6802 35.0244L14.8336 34.9478L15.1144 34.8082L15.2495 34.74L15.4936 34.6188L15.6113 34.5608L15.8159 34.4598L15.9133 34.4126L16.0774 34.3335L16.1536 34.2965L16.2732 34.2401L16.3273 34.2149L16.3997 34.1829L16.4537 34.1636H16.4575L16.4884 34.1753L16.5087 34.1837L16.5695 34.2115L16.6042 34.2275L16.6949 34.2696L16.7441 34.2932L16.8628 34.3504L16.9255 34.3807L17.0712 34.4522L17.1475 34.4892L17.3182 34.5734L17.407 34.6171L17.6029 34.7139L17.7042 34.7644L17.9232 34.8729L18.1481 34.9848L18.6633 35.2423L18.9306 35.377L19.524 35.6749L19.8299 35.8288L20.4928 36.1629L20.8315 36.3345L21.5542 36.6997L21.9218 36.8857L22.6947 37.2779L23.0865 37.4765L23.9009 37.8904L24.3119 38.0991L25.1572 38.53L25.5837 38.747L26.4521 39.1905L27.3244 39.6356L29.096 40.5436L31.7215 41.8924L32.2281 42.1533V21.4128V0.673173H16.5H0.77193V21.4128V42.1533L1.23026 41.9168L1.2457 41.9093L1.31518 41.8739L1.3557 41.8529L1.47149 41.7931L1.53518 41.7603L1.69632 41.6771L1.78123 41.6333L1.98482 41.5289L2.09097 41.4742L2.33316 41.3497L2.4586 41.2849L2.73746 41.141L2.88123 41.067L3.19482 40.9062L3.355 40.8238L3.69947 40.6462L3.87509 40.5562L4.24851 40.3635L4.4386 40.2659L4.83711 40.0605L5.03974 39.9562L5.46237 39.7392L5.67658 39.6289L6.12044 39.4L6.56816 39.1694L7.5157 38.6822L7.99623 38.4348L8.99202 37.9224Z"
        fill="#EFC01B" />
    <path
        d="M17.1941 35.8462C17.28 35.8894 17.3658 35.9325 17.4543 35.977C17.6013 36.0506 17.6013 36.0506 17.7514 36.1256C17.9086 36.205 17.9086 36.205 18.0688 36.2861C18.1802 36.3419 18.2915 36.3977 18.4029 36.4534C18.634 36.569 18.865 36.6849 19.0958 36.8009C19.6257 37.067 20.1579 37.3299 20.6896 37.5932C20.898 37.6966 21.1065 37.7999 21.3148 37.9032C21.4179 37.9544 21.5211 38.0055 21.6274 38.0583C24.5968 39.5307 24.5968 39.5307 27.5663 41.0033C27.6696 41.0544 27.7729 41.1056 27.8793 41.1584C28.0864 41.2611 28.2934 41.3638 28.5004 41.4666C28.984 41.7066 29.4678 41.9463 29.9524 42.1847C30.1231 42.2687 30.2936 42.3528 30.4642 42.437C30.6774 42.5421 30.8908 42.6471 31.1043 42.7518C31.2958 42.8464 31.4868 42.9419 31.677 43.0386C31.8511 43.1269 32.0231 43.214 32.2005 43.2973H30.5119C30.5159 43.2387 30.508 43.3542 30.5119 43.2973H29.3416C29.2343 43.2428 28.4359 42.8439 29.3416 43.2973C28.8225 43.0348 29.2063 43.2299 28.6843 42.9717C28.4742 42.8676 28.2641 42.7636 28.0539 42.6595C27.8974 42.582 27.8974 42.582 27.7377 42.5029C27.2155 42.2443 26.6937 41.9855 26.1717 41.7266C25.9634 41.6232 25.7549 41.5199 25.5466 41.4166C24.2963 40.7965 23.0459 40.1766 21.7957 39.5565C21.6407 39.4797 21.6407 39.4797 21.4827 39.4014C21.2757 39.2987 21.0687 39.196 20.8618 39.0934C20.3771 38.853 19.8922 38.6126 19.4071 38.3729C19.2357 38.2882 19.0644 38.2035 18.8932 38.1188C18.6786 38.0127 18.4639 37.9066 18.2492 37.8007C18.1517 37.7525 18.0543 37.7043 17.9539 37.6546C17.862 37.6092 17.7691 37.5655 17.6754 37.5173C17.3881 37.386 17.3881 37.345 16.4264 36.9148C16.0897 37.0801 16.0897 37.0801 16.0897 37.0801C15.9454 37.1462 15.944 37.1443 15.7197 37.2584C15.6334 37.3006 15.547 37.3428 15.4582 37.3863C15.3655 37.4325 15.273 37.4786 15.1776 37.5261C15.0798 37.5741 14.9821 37.6222 14.8814 37.6718C14.1007 38.0567 13.3236 38.4469 12.547 38.8378C11.8018 39.2126 11.0529 39.5819 10.3026 39.9492C9.46645 40.3587 8.63252 40.7712 7.80204 41.1892C6.91497 41.6357 6.02369 42.0755 5.13056 42.5129C4.32336 42.9084 4.36128 42.886 3.55921 43.289C4.40171 42.8675 3.65676 43.2401 3.55921 43.289C4.06397 43.0354 3.65878 43.2391 3.55921 43.289H1.08203C2.19834 42.7274 6.5579 40.4125 7.67872 39.8576C8.20085 39.599 8.72276 39.3401 9.24469 39.0812C9.45307 38.9779 9.66144 38.8746 9.86987 38.7712C9.97302 38.72 10.0762 38.6689 10.1824 38.6163C10.4949 38.4613 10.8076 38.3063 11.1201 38.1512C11.2751 38.0744 11.2751 38.0744 11.4331 37.9961C11.6401 37.8934 11.8472 37.7907 12.0542 37.688C12.5383 37.448 13.0224 37.208 13.5062 36.9675C13.6768 36.8829 13.8474 36.7982 14.018 36.7135C14.2315 36.6075 14.4448 36.5014 14.6582 36.3954C14.8494 36.3005 15.0245 36.2067 15.2165 36.113C15.3874 36.0279 15.3823 36.0381 15.7395 35.8483C15.851 35.7891 15.851 35.7891 15.9646 35.7287C16.0594 35.6784 16.3611 35.5291 16.4264 35.4929C16.6668 35.5921 16.6668 35.5921 17.1941 35.8462Z"
        fill="black" fill-opacity="0.3" />
</svg>
    
    