<svg id="SvgjsSvg1001" xmlns="http://www.w3.org/2000/svg" version="1.1"
    xmlns:xlink="http://www.w3.org/1999/xlink" xmlns:svgjs="http://svgjs.com/svgjs"
    viewBox="30.01 30.01 227.98 227.98">
    <rect id="SvgjsRect1011" width="288" height="288" rx="20" ry="20"
        transform="matrix(0.7916,0,0,0.7916,30.009600000000006,30.009600000000006)" fill="#232f3e"></rect>
    <defs id="SvgjsDefs1002"></defs>
    <g id="SvgjsG1008" transform="matrix(0.4652,0,0,0.4652,25,50)">
        <path
            d="M304.24,324.92a164,164,0,0,1-28.92,25.3A135.16,135.16,0,0,1,208.63,369a99.49,99.49,0,0,1-57.49-19.85,97.25,97.25,0,0,1-27.36-100.28,112.35,112.35,0,0,1,65.3-69.06,367.67,367.67,0,0,1,104.7-15.55V127A37.82,37.82,0,0,0,261,94.72a59.9,59.9,0,0,0-31.17,4.08,48.89,48.89,0,0,0-27.13,34.67,12,12,0,0,1-12.58,6.72l-50.9-4.5a11.38,11.38,0,0,1-8.38-10.16,103.66,103.66,0,0,1,36.61-63.45A143.86,143.86,0,0,1,257.85,32a146.24,146.24,0,0,1,84.27,27.67,86.82,86.82,0,0,1,30.7,70.22V258.8a84.46,84.46,0,0,0,8,31.28l15.87,23.23a13,13,0,0,1,0,11.23L349.7,364.25a12.5,12.5,0,0,1-12.68-.44A244.84,244.84,0,0,1,304.24,324.92Zm-10.6-116.83a257.68,257.68,0,0,0-44,2.89A63,63,0,0,0,208,242.54a63,63,0,0,0,3.07,54,40.6,40.6,0,0,0,47.11,12.19,78.61,78.61,0,0,0,35.46-55.58V208.09"
            fill="#ffffff" class="color000 svgShape"></path>
    </g>
</svg>