<!-- <svg width="19" height="18" viewBox="0 0 19 18" fill="none" xmlns="http://www.w3.org/2000/svg">
    <path
        d="M9.4994 10.8015C10.5482 10.8015 11.3985 9.99581 11.3985 9.0019C11.3985 8.00799 10.5482 7.20227
9.4994 7.20227C8.45058 7.20227 7.60034 8.00799 7.60034 9.0019C7.60034 9.99581 8.45058 10.8015
9.4994
10.8015Z"
        fill="#0D253F" />
    <path
        d="M8.54945 5.53764C8.85823 5.45287 9.17755 5.40748 9.49898 5.40267C10.5063 5.40267 11.4724 5.78187
12.1847 6.45687C12.8969 7.13186 13.2971 8.04734 13.2971 9.00193C13.292 9.30653 13.2441 9.60913
13.1547 9.90174L16.2691 12.8531C17.4241 11.8839 18.3302 10.6774 18.9183 9.32586C18.9686 9.21815
18.9945 9.10169 18.9945 8.98393C18.9945 8.86617 18.9686 8.74971 18.9183 8.642C17.9182 6.36159
16.0339 4.53103 13.6532 3.52682C11.2724 2.5226 8.57602 2.42107 6.11865 3.24311L8.54945 5.53764Z"
        fill="#0D253F" />
    <path
        d="M10.449 12.4661C10.1402 12.5508 9.82086 12.5962 9.49943 12.601C8.49211 12.601 7.52604 12.2218
6.81375 11.5468C6.10147 10.8718 5.70131 9.95636 5.70131 9.00177C5.70639 8.69717 5.75429 8.39457
5.84374 8.10196L2.72928 5.13257C1.57434 6.10185 0.668243 7.30828 0.0800895 8.65984C0.0298544
8.76755
0.00390625 8.88401 0.00390625 9.00177C0.00390625 9.11953 0.0298544 9.236 0.0800895 9.3437C0.851154
11.109 2.15801 12.6175 3.83495 13.678C5.51189 14.7384 7.48338 15.3032 9.49943 15.3005C10.6507
15.2983 11.7934 15.1127 12.8798 14.7516L10.449 12.4661Z"
        fill="#0D253F" />
    <path
        d="M18.045 18C17.92 18.0007 17.7961 17.978 17.6804 17.9332C17.5647 17.8884 17.4595 17.8224 17.3708
17.739L0.279249 1.54237C0.100449 1.37293 -1.88397e-09 1.14312 0 0.903497C1.88397e-09 0.663875
0.100449 0.434067 0.279249 0.264628C0.458049 0.0951895 0.700554 1.78533e-09 0.953416 0C1.20628
-1.78532e-09 1.44878 0.0951895 1.62758 0.264628L18.7191 16.4613C18.8081 16.545 18.8788 16.6445
18.927 16.7541C18.9752 16.8638 19 16.9814 19 17.1002C19 17.219 18.9752 17.3366 18.927
17.4462C18.8788 17.5559 18.8081 17.6554 18.7191 17.739C18.6304 17.8224 18.5252 17.8884 18.4095
17.9332C18.2938 17.978 18.1699 18.0007 18.045 18Z"
        fill="#0D253F" />
</svg> -->

<svg width="17" height="14" viewBox="0 0 17 14" fill="none" xmlns="http://www.w3.org/2000/svg">
        <path
                d="M6.41268 14L4.89629 13.7021L5.51431 12.0119C4.58922 11.762 3.72944 11.3979 2.97233 10.9353L1.2816 12.1741L0.170408 11.3603L1.86192 10.1222C0.907069 9.2847 0.265498 8.28001 0 7.20646L1.54546 7C2.14149 9.41653 5.02822 11.2499 8.49999 11.2499C11.971 11.2499 14.8585 9.41653 15.4545 7L17 7.20588C16.7348 8.27958 16.0936 9.28447 15.1388 10.1222L16.8295 11.3603L15.7184 12.1741L14.0277 10.9353C13.2706 11.3979 12.4107 11.762 11.4856 12.0119L12.1037 13.7027L10.5873 14L9.96848 12.3092C8.99661 12.4312 8.00341 12.4312 7.0315 12.3092L6.41268 14Z"
                fill="#0D253F" />
</svg>
        
        
        