<!-- <svg width="19" height="18" viewBox="0 -3 19 18" fill="none"
xmlns="http://www.w3.org/2000/svg">
    <path
        d="M9.50005 7.82255C10.5494 7.82255 11.4 7.04462 11.4 6.08498C11.4 5.12535 10.5494 4.34741 9.50005
4.34741C8.45074 4.34741 7.6001 5.12535 7.6001 6.08498C7.6001 7.04462 8.45074 7.82255 9.50005
7.82255Z"
        fill="#0D253F" />
    <path
        d="M18.9238 5.75486C18.1508 4.05119 16.8431 2.59525 15.1658 1.57096C13.4885 0.546675 11.5169 0 9.5
0C7.48313 0 5.5115 0.546675 3.83419 1.57096C2.15689 2.59525 0.84916 4.05119 0.0762191
5.75486C0.0259603 5.85886 0 5.9713 0 6.085C0 6.1987 0.0259603 6.31114 0.0762191 6.41514C0.84916
8.11881 2.15689 9.57475 3.83419 10.599C5.5115 11.6233 7.48313 12.17 9.5 12.17C11.5169 12.17 13.4885
11.6233 15.1658 10.599C16.8431 9.57475 18.1508 8.11881 18.9238 6.41514C18.974 6.31114 19 6.1987 19
6.085C19 5.9713 18.974 5.85886 18.9238 5.75486ZM9.5 9.56014C8.74845 9.56014 8.01377 9.35633 7.38888
8.97447C6.76399 8.59262 6.27695 8.04988 5.98934 7.41488C5.70173 6.77988 5.62648 6.08115 5.7731
5.40703C5.91972 4.73292 6.28163 4.11371 6.81306 3.6277C7.34448 3.1417 8.02156 2.81072 8.75867
2.67663C9.49578 2.54254 10.2598 2.61136 10.9542 2.87439C11.6485 3.13741 12.242 3.58283 12.6595
4.15432C13.0771 4.7258 13.2999 5.39768 13.2999 6.085C13.2999 7.00667 12.8996 7.89058 12.1869
8.5423C11.4743 9.19401 10.5078 9.56014 9.5 9.56014Z"
        fill="#0D253F" />
</svg>
     -->

<svg width="17" height="14" viewBox="0 0 17 14" fill="none" xmlns="http://www.w3.org/2000/svg">
    <g clip-path="url(#clip0_450_106)">
        <path
            d="M8.49976 9.00031C9.43865 9.00031 10.1997 8.10525 10.1997 7.00113C10.1997 5.89702 9.43865 5.00195 8.49976 5.00195C7.5609 5.00195 6.7998 5.89702 6.7998 7.00113C6.7998 8.10525 7.5609 9.00031 8.49976 9.00031Z"
            fill="#0D253F" />
        <path
            d="M16.9318 6.6213C16.2402 4.66113 15.0701 2.98599 13.5694 1.80748C12.0687 0.628982 10.3046 0 8.5 0C6.69543 0 4.93134 0.628982 3.43059 1.80748C1.92985 2.98599 0.759775 4.66113 0.068196 6.6213C0.0232276 6.74096 0 6.87033 0 7.00115C0 7.13197 0.0232276 7.26134 0.068196 7.381C0.759775 9.34117 1.92985 11.0163 3.43059 12.1948C4.93134 13.3733 6.69543 14.0023 8.5 14.0023C10.3046 14.0023 12.0687 13.3733 13.5694 12.1948C15.0701 11.0163 16.2402 9.34117 16.9318 7.381C16.9767 7.26134 17 7.13197 17 7.00115C17 6.87033 16.9767 6.74096 16.9318 6.6213ZM8.5 10.9995C7.82756 10.9995 7.17021 10.765 6.6111 10.3257C6.05199 9.88631 5.61622 9.26186 5.35888 8.53126C5.10155 7.80065 5.03422 6.99672 5.16541 6.22111C5.29659 5.4455 5.62041 4.73307 6.0959 4.17388C6.57138 3.61471 7.17718 3.2339 7.8367 3.07962C8.49622 2.92534 9.17982 3.00452 9.80113 3.30715C10.4223 3.60977 10.9534 4.12226 11.3269 4.77979C11.7006 5.43731 11.8999 6.21035 11.8999 7.00115C11.8999 8.06159 11.5417 9.07858 10.9041 9.82842C10.2665 10.5782 9.40172 10.9995 8.5 10.9995Z"
            fill="#0D253F" />
    </g>
    <defs>
        <clipPath id="clip0_450_106">
            <rect width="17" height="14" fill="white" />
        </clipPath>
    </defs>
</svg>
        
        
        