<svg xmlns="http://www.w3.org/2000/svg" xmlns:xlink="http://www.w3.org/1999/xlink" width="24px"
    height="30px" viewBox="0 0 24 24" version="1.1" fill="#efc01b">
    <g id="surface1">
        <path style=" stroke:none;fill-rule:evenodd;fill:##efc01b;fill-opacity:1;"
            d="M 12 22.9375 C 16.640625 22.9375 20.398438 19.15625 20.398438 14.496094 C 20.398438 11.617188 19.109375 9.6875 16.78125 7.554688 C 14.589844 5.539062 13.660156 4.257812 13.234375 1.402344 C 13.207031 1.195312 12.945312 1.125 12.828125 1.296875 C 11.621094 3.101562 12.019531 5.1875 12.378906 7.074219 C 12.710938 8.804688 13.007812 10.363281 12 11.378906 C 9.894531 13.492188 6.789062 12.097656 6.695312 8.097656 C 6.691406 7.890625 6.449219 7.773438 6.300781 7.917969 C 4.671875 9.511719 3.601562 12.078125 3.601562 14.496094 C 3.601562 19.15625 7.359375 22.9375 12 22.9375 Z M 14.832031 12.140625 C 15.425781 12.933594 18.460938 17.324219 14.738281 19.335938 C 11.824219 20.910156 9.648438 18.046875 9.140625 17.292969 C 9.113281 17.253906 9.164062 17.199219 9.207031 17.222656 C 9.761719 17.515625 11.492188 18.230469 13.078125 16.816406 C 14.742188 15.335938 14.769531 12.820312 14.746094 12.171875 C 14.746094 12.125 14.804688 12.105469 14.832031 12.140625 Z M 14.832031 12.140625 " />
    </g>
</svg>