<svg xmlns="http://www.w3.org/2000/svg" data-name="Layer 1" x="0px" y="0px" fill="#efc01b"
    viewBox="15.55 15.93 68.46 68.47">
    <path
        d="M60.7,58.74c.18-.38.33-.76.47-1.14l.1-.27c.13-.41.25-.82.34-1.24,0-.06,0-.11,0-.16a13,13,0,0,0,.29-3v-.06a13,13,0,0,0-.11-1.39l0-.21c-.06-.43-.14-.85-.24-1.27,0-.06,0-.13-.05-.19a14,14,0,0,0-.44-1.39h0a13.08,13.08,0,0,0-3-4.56l-2-2.05a13.75,13.75,0,0,0-2.69-2.06l-5,5a3.37,3.37,0,0,0-.74,1.11,5.24,5.24,0,0,1,2.91,1.47l2,2A5.29,5.29,0,0,1,53.78,55c0,.13-.11.25-.16.38l-.26.49-.18.28a4.66,4.66,0,0,1-.6.73L34.48,75A5.43,5.43,0,0,1,27,75L24.92,73a5.32,5.32,0,0,1,0-7.51L37,53.38a15,15,0,0,1-.79-10.27L19.39,59.92a13.15,13.15,0,0,0,0,18.57l2.05,2.06a13.12,13.12,0,0,0,18.57,0l18.1-18.1a13.41,13.41,0,0,0,1.76-2.19h0A11.72,11.72,0,0,0,60.59,59Z"></path>
    <path
        d="M80.17,21.83l-2.06-2.06a13.15,13.15,0,0,0-18.57,0l-18.1,18.1a13.07,13.07,0,0,0-1.76,2.2h0A12.35,12.35,0,0,0,39,41.35c0,.08-.07.16-.11.23-.17.38-.33.76-.47,1.15l-.09.26c-.14.41-.25.83-.35,1.25l0,.15a13.73,13.73,0,0,0-.3,3,.06.06,0,0,1,0,0,13,13,0,0,0,.1,1.4l0,.21c.06.43.15.85.25,1.27,0,.06,0,.13,0,.19a13.1,13.1,0,0,0,3.39,5.95l2.06,2.05a12.66,12.66,0,0,0,2.69,2.06l5-5A3.41,3.41,0,0,0,52,54.39,5.15,5.15,0,0,1,49,53L47,50.91a5.31,5.31,0,0,1-1.4-5A5.08,5.08,0,0,1,46,44.88a4,4,0,0,1,.24-.46c.06-.1.12-.2.19-.3A4.94,4.94,0,0,1,47,43.4l4.53-4.53h0L65.07,25.3a5.32,5.32,0,0,1,7.51,0l2.06,2.06a5.32,5.32,0,0,1,0,7.51L62.56,47a14.95,14.95,0,0,1,.79,10.26L80.17,40.4h0A13.15,13.15,0,0,0,80.17,21.83Z"></path>
</svg>