<svg xmlns="http://www.w3.org/2000/svg" version="1.1" fill="#000000" viewBox="7.82 7.82 84.37 84.37">
    <g>
        <path
            d="m84.949 38.652h-1.3477c-0.95312 0-1.8281-0.62891-2.2578-1.6797-0.40234-0.97266-0.22656-2.0352 0.44531-2.7109l0.94531-0.94922c1.3672-1.3672 2.1211-3.1836 2.1211-5.1172 0-1.9336-0.75391-3.75-2.1211-5.1172l-5.8125-5.8125c-1.3672-1.3672-3.1836-2.1211-5.1172-2.1211-1.9336 0-3.75 0.75391-5.1133 2.1172l-0.95312 0.95312c-0.67188 0.67188-1.7344 0.84375-2.582 0.5-0.042969-0.019532-0.16016-0.070313-0.20312-0.085938-0.97266-0.40234-1.6016-1.2734-1.6016-2.2266v-1.3477c0-3.9922-3.2461-7.2383-7.2344-7.2383h-8.2266c-3.9922 0-7.2344 3.2461-7.2344 7.2383v1.3477c0 0.95312-0.62891 1.8281-1.6797 2.2578-0.96875 0.40625-2.0352 0.22656-2.7109-0.44531l-0.94922-0.94531c-1.3672-1.3672-3.1836-2.1211-5.1172-2.1211-1.9336 0-3.75 0.75391-5.1172 2.1211l-5.8125 5.8125c-1.3672 1.3672-2.1211 3.1836-2.1211 5.1172 0 1.9336 0.75391 3.75 2.1172 5.1133l0.95312 0.95312c0.67188 0.67188 0.84375 1.7344 0.41406 2.7852-0.40234 0.97266-1.2734 1.6016-2.2266 1.6016h-1.3477c-3.9922 0-7.2383 3.2461-7.2383 7.2344v8.2266c0 3.9922 3.2461 7.2344 7.2383 7.2344h1.3477c0.95312 0 1.8281 0.62891 2.2578 1.6797 0.40234 0.97266 0.22656 2.0352-0.44141 2.707l-0.94922 0.94922c-1.3672 1.3672-2.1211 3.1836-2.1211 5.1172 0 1.9336 0.75391 3.75 2.1211 5.1172l5.8125 5.8164c1.3672 1.3672 3.1836 2.1211 5.1172 2.1211s3.75-0.75391 5.1133-2.1172l0.95312-0.95312c0.67188-0.67188 1.7344-0.84375 2.7852-0.41406 0.97266 0.40234 1.6016 1.2734 1.6016 2.2266v1.3477c0 3.9922 3.2461 7.2383 7.2344 7.2383h8.2266c3.9922 0 7.2344-3.2461 7.2344-7.2383v-1.3477c0-0.95312 0.62891-1.8281 1.6797-2.2578 0.97266-0.40625 2.0352-0.22656 2.7109 0.44531l0.94922 0.94531c1.3672 1.3672 3.1836 2.1211 5.1172 2.1211s3.75-0.75391 5.1172-2.1211l5.8125-5.8125c1.3672-1.3672 2.1211-3.1836 2.1211-5.1172 0-1.9336-0.75391-3.75-2.1211-5.1172l-0.94922-0.94922c-0.67187-0.67188-0.84375-1.7344-0.5-2.582 0.019532-0.042969 0.070313-0.16016 0.085938-0.20312 0.40234-0.97266 1.2734-1.6016 2.2266-1.6016h1.3477c3.9922 0 7.2383-3.2461 7.2383-7.2344v-8.2266c0-3.9922-3.2461-7.2344-7.2383-7.2344zm0.98828 15.461c0 0.54297-0.44141 0.98438-0.98828 0.98438h-1.3477c-3.4961 0-6.6406 2.1484-8.0352 5.543-1.3711 3.3164-0.66406 7.0547 1.8008 9.5156l0.94922 0.94922c0.25 0.25 0.28906 0.54688 0.28906 0.69922 0 0.1875-0.050781 0.45703-0.28906 0.69531l-5.8125 5.8164c-0.25 0.25-0.54688 0.28906-0.69922 0.28906-0.1875 0-0.45703-0.050781-0.69922-0.29297l-0.94922-0.94922c-2.4648-2.4648-6.1992-3.168-9.5781-1.7734-3.3281 1.3672-5.4805 4.5117-5.4805 8.0078v1.3477c0 0.54688-0.44141 0.98828-0.98438 0.98828h-8.2266c-0.54297 0-0.98438-0.44141-0.98438-0.98828v-1.3477c0-3.4961-2.1484-6.6406-5.543-8.0352-1.125-0.46484-2.2969-0.6875-3.4531-0.6875-2.25 0-4.4375 0.85938-6.0625 2.4883l-0.95312 0.95312c-0.23828 0.23828-0.50781 0.28906-0.69531 0.28906-0.15234 0-0.44531-0.039063-0.69922-0.28906l-5.8164-5.8164c-0.23828-0.23828-0.28906-0.50781-0.28906-0.69531 0-0.15234 0.039063-0.44531 0.28906-0.69922l0.94922-0.94922c2.4648-2.4648 3.1719-6.1992 1.7734-9.5781-1.3672-3.3281-4.5117-5.4805-8.0078-5.4805h-1.3477c-0.54688 0-0.98828-0.44141-0.98828-0.98438v-8.2266c0-0.54297 0.44141-0.98438 0.98828-0.98438h1.3477c3.4961 0 6.6406-2.1484 8.0352-5.543 1.3711-3.3164 0.66406-7.0547-1.7969-9.5156l-0.95312-0.95312c-0.23828-0.23828-0.28906-0.50781-0.28906-0.69531 0-0.15234 0.039063-0.44531 0.28906-0.69922l5.8125-5.8125c0.25-0.25 0.54687-0.28906 0.69922-0.28906 0.1875 0 0.45703 0.050781 0.69922 0.29297l0.94922 0.94922c2.4648 2.4688 6.2031 3.1719 9.5781 1.7734 3.3281-1.3672 5.4805-4.5117 5.4805-8.0078v-1.3477c0-0.54688 0.44141-0.98828 0.98437-0.98828h8.2266c0.54297 0 0.98438 0.44141 0.98438 0.98828v1.3477c0 3.4961 2.1484 6.6406 5.543 8.0352 3.3164 1.3672 7.0508 0.66406 9.5156-1.7969l0.95312-0.95312c0.23828-0.23828 0.50781-0.28906 0.69531-0.28906 0.15234 0 0.44531 0.039062 0.69922 0.28906l5.8125 5.8125c0.25 0.25 0.28906 0.54688 0.28906 0.69922 0 0.1875-0.050781 0.45703-0.29297 0.69922l-0.94922 0.94922c-2.4648 2.4648-3.1719 6.1992-1.7734 9.5781 1.3672 3.3281 4.5117 5.4805 8.0078 5.4805h1.3477c0.54688 0 0.98828 0.44141 0.98828 0.98438v8.2266z"></path>
        <path
            d="m50 29.688c-11.199 0-20.312 9.1133-20.312 20.312s9.1133 20.312 20.312 20.312 20.312-9.1133 20.312-20.312-9.1133-20.312-20.312-20.312zm0 34.375c-7.7539 0-14.062-6.3086-14.062-14.062s6.3086-14.062 14.062-14.062 14.062 6.3086 14.062 14.062-6.3086 14.062-14.062 14.062z"></path>
    </g>
</svg>