<svg width="78" height="38" viewBox="0 0 78 38" fill="none" xmlns="http://www.w3.org/2000/svg">
    <rect width="78" height="38" rx="5" fill="#0D253F" />
    <path
        d="M42.771 17.3918H66.684C68.3585 17.3918 69.9644 16.7525 71.1488 15.6145C72.3332 14.4765 72.9991 12.9329 73 11.323C73 9.71259 72.3346 8.16811 71.1501 7.02935C69.9656 5.8906 68.3591 5.25086 66.684 5.25086H42.771C41.0959 5.25086 39.4894 5.8906 38.3049 7.02935C37.1204 8.16811 36.455 9.71259 36.455 11.323C36.456 12.9329 37.1218 14.4765 38.3062 15.6145C39.4906 16.7525 41.0965 17.3918 42.771 17.3918ZM11.316 32.8557H38.8034C40.4779 32.8557 42.0839 32.2164 43.2682 31.0784C44.4526 29.9404 45.1185 28.3968 45.1194 26.7869C45.1194 25.1765 44.454 23.632 43.2695 22.4933C42.085 21.3545 40.4785 20.7148 38.8034 20.7148H11.316C9.64091 20.7148 8.0344 21.3545 6.84992 22.4933C5.66544 23.632 5 25.1765 5 26.7869C5.00095 28.3968 5.6668 29.9404 6.85118 31.0784C8.03556 32.2164 9.64153 32.8557 11.316 32.8557ZM8.72098 17.1718H11.509V7.37801H15.1192V5H5.11081V7.37113H8.72098V17.1718ZM18.7651 17.1718H21.5532V7.83505H21.5889L24.8059 17.1649H26.9506L30.2748 7.83505H30.3106V17.1649H33.0986V5H28.8629L25.9319 12.9381H25.8961L22.983 5H18.7651V17.1718ZM59.4851 24.1306C59.1122 23.3831 58.5581 22.7325 57.8694 22.2337C57.1549 21.7313 56.3431 21.3715 55.4817 21.1753C54.5382 20.9487 53.5696 20.8333 52.5971 20.8316H48.4151V32.9966H52.9725C53.8879 33.0008 54.7985 32.8675 55.6711 32.6014C56.4951 32.3603 57.2649 31.9734 57.9409 31.4605C58.5985 30.9473 59.1316 30.3023 59.5029 29.5704C59.9044 28.7573 60.1038 27.8656 60.0856 26.9656C60.1147 25.9888 59.9092 25.0187 59.4851 24.1306ZM56.8293 28.5739C56.6202 29.0324 56.2959 29.4339 55.8856 29.7423C55.4592 30.0436 54.9723 30.2566 54.4558 30.3677C53.8698 30.4975 53.27 30.5609 52.6686 30.5567H51.221V23.3402H52.8652C53.4294 23.3375 53.9912 23.4104 54.5345 23.5567C55.0343 23.6862 55.5046 23.9042 55.9214 24.1993C56.3035 24.4884 56.6137 24.8559 56.8293 25.2749C57.0748 25.7581 57.1973 26.2905 57.1867 26.8282C57.2024 27.4283 57.0803 28.0243 56.8293 28.5739ZM72.782 28.5292C72.6557 28.197 72.4639 27.8913 72.2172 27.6289C71.9717 27.3679 71.6785 27.1525 71.3522 26.9931C70.9963 26.8204 70.6136 26.7044 70.2191 26.6495V26.6151C70.8322 26.4459 71.381 26.1093 71.799 25.646C72.211 25.1632 72.4246 24.5519 72.3995 23.9278C72.4263 23.3682 72.2835 22.813 71.9884 22.3299C71.7192 21.936 71.3502 21.6143 70.9161 21.3952C70.4491 21.1633 69.9434 21.0121 69.422 20.9485C68.875 20.8733 68.3232 20.8354 67.7706 20.8351H63.0524V33H68.2353C68.8024 33.0003 69.3679 32.9427 69.9224 32.8282C70.4622 32.7243 70.9796 32.5325 71.4523 32.2612C71.8996 32.0046 72.2789 31.6517 72.5603 31.2302C72.8617 30.7452 73.0107 30.1866 72.9893 29.622C72.9898 29.2496 72.9233 28.8798 72.7927 28.5292H72.782ZM65.8404 23.1168H67.7349C67.9568 23.1177 68.1782 23.1384 68.3961 23.1787C68.6075 23.2152 68.8122 23.2812 69.0038 23.3746C69.1804 23.4672 69.3303 23.6006 69.4399 23.7629C69.5606 23.9503 69.6203 24.1681 69.6114 24.3883C69.6166 24.6038 69.5637 24.8169 69.4577 25.0069C69.3613 25.1737 69.2239 25.3153 69.0574 25.4192C68.8841 25.5248 68.693 25.6004 68.4926 25.6426C68.2853 25.6896 68.0729 25.7126 67.86 25.7113H65.8404V23.1168ZM70.0296 29.9897C69.9221 30.169 69.7729 30.3219 69.5936 30.4364C69.4119 30.5539 69.2078 30.6357 68.9931 30.677C68.7796 30.7232 68.5614 30.7463 68.3425 30.7457H65.8404V27.9966H67.9493C68.1885 27.9987 68.4273 28.016 68.6642 28.0481C68.9157 28.0813 69.1619 28.1448 69.397 28.2371C69.6162 28.3253 69.8091 28.4647 69.9582 28.6426C70.1137 28.8397 70.1933 29.0826 70.1833 29.3299C70.1948 29.5591 70.1417 29.7871 70.0296 29.9897Z"
        fill="url(#linear-gradient)" />
    <defs>
        <linearGradient id="linear-gradient" x1="5" y1="19.0069" x2="73" y2="19.0069"
            gradientUnits="userSpaceOnUse">
            <stop stop-color="#90CEA1" />
            <stop offset="0.56" stop-color="#3CBEC9" />
            <stop offset="1" stop-color="#00B3E5" />
        </linearGradient>
    </defs>
</svg>
    
    
    